<svg id="visual" viewBox="0 0 2000 1666" width="2000" height="1666" xmlns="http://www.w3.org/2000/svg" xmlns:xlink="http://www.w3.org/1999/xlink" version="1.1"><rect x="0" y="0" width="2000" height="1666" fill="#13233b"></rect><path d="M0 897L47.7 912.3C95.3 927.7 190.7 958.3 285.8 931C381 903.7 476 818.3 571.2 847C666.3 875.7 761.7 1018.3 857 1018.7C952.3 1019 1047.7 877 1143 871.3C1238.3 865.7 1333.7 996.3 1428.8 1018.3C1524 1040.3 1619 953.7 1714.2 959.7C1809.3 965.7 1904.7 1064.3 1952.3 1113.7L2000 1163L2000 1667L1952.3 1667C1904.7 1667 1809.3 1667 1714.2 1667C1619 1667 1524 1667 1428.8 1667C1333.7 1667 1238.3 1667 1143 1667C1047.7 1667 952.3 1667 857 1667C761.7 1667 666.3 1667 571.2 1667C476 1667 381 1667 285.8 1667C190.7 1667 95.3 1667 47.7 1667L0 1667Z" fill="#F7D08A" stroke-linecap="round" stroke-linejoin="miter"></path></svg>